<?xml version="1.0" encoding="utf-8"?>
<!-- Generator: Adobe Illustrator 21.0.0, SVG Export Plug-In . SVG Version: 6.00 Build 0)  -->
<svg version="1.1" id="Calque_1" xmlns="http://www.w3.org/2000/svg" xmlns:xlink="http://www.w3.org/1999/xlink" x="0px" y="0px"
	 viewBox="0 0 915.6 994.8" style="enable-background:new 0 0 915.6 994.8;" xml:space="preserve">
<style type="text/css">
	.st0{fill:#FFFFFF;}
	.st1{enable-background:new    ;}
</style>
<g>
	<g>
		<g>
			<path class="st0" d="M562,591.5c-22.2,0-44.4,0-66.6,0c-35.4,0-70.8,0-106.2,0c-8.1,0-16.2,0-24.3,0c2.4,1,4.7,2,7.1,2.9
				c-11.1-11.2-22.1-22.4-33.2-33.6c-26.6-26.9-53.1-53.8-79.7-80.7c-32-32.4-64-64.8-96-97.2c-27.7-28-55.3-56-83-84
				c-9.2-9.3-18.3-18.5-27.5-27.8c-4.3-4.3-8.4-9.2-13-13.2c-0.2-0.2-0.4-0.4-0.6-0.6c-2.4,5.7-4.7,11.4-7.1,17.1
				c7.7,0,15.4,0,23.1,0c20.9,0,41.9,0,62.8,0c31,0,61.9,0,92.9,0c37.8,0,75.6,0,113.4,0c41.2,0,82.4,0,123.7,0
				c41.8,0,83.5,0,125.3,0c39,0,77.9,0,116.9,0c32.9,0,65.8,0,98.7,0c23.7,0,47.3,0,71,0c11.1,0,22.4,0.5,33.5,0c0.5,0,1,0,1.5,0
				c-2.4-5.7-4.7-11.4-7.1-17.1c-11.1,11.2-22.1,22.4-33.2,33.6c-26.6,26.9-53.1,53.8-79.7,80.7c-32,32.4-64,64.8-96,97.2
				c-27.7,28-55.3,56-83,84c-13.5,13.6-27.5,26.9-40.5,41c-0.2,0.2-0.4,0.4-0.6,0.6c-9.1,9.2,5.1,23.3,14.1,14.1
				c11.1-11.2,22.1-22.4,33.2-33.6c26.6-26.9,53.1-53.8,79.7-80.7c32-32.4,64-64.8,96-97.2c27.7-28,55.3-56,83-84
				c13.5-13.6,27.5-26.9,40.5-41c0.2-0.2,0.4-0.4,0.6-0.6c6.1-6.1,1.6-17.1-7.1-17.1c-7.7,0-15.4,0-23.1,0c-20.9,0-41.9,0-62.8,0
				c-31,0-61.9,0-92.9,0c-37.8,0-75.6,0-113.4,0c-41.2,0-82.4,0-123.7,0c-41.8,0-83.5,0-125.3,0c-39,0-77.9,0-116.9,0
				c-32.9,0-65.8,0-98.7,0c-23.7,0-47.3,0-71,0c-11.2,0-22.3-0.3-33.5,0c-0.5,0-1,0-1.5,0c-8.7,0-13.1,10.9-7.1,17.1
				c21,21.3,42,42.6,63,63.8c43.7,44.2,87.3,88.4,131,132.6c38,38.5,76,76.9,113.9,115.4c8,8.1,15.8,16.4,24,24.3
				c3.6,3.5,7.6,3.8,12.2,3.8c9.1,0,18.2,0,27.3,0c54,0,107.9,0,161.9,0c1.2,0,2.5,0,3.7,0C574.8,611.5,574.9,591.5,562,591.5z"/>
		</g>
	</g>
	<g>
		<g>
			<path class="st0" d="M561.3,719.5c-22,0-44,0-66,0c-35.3,0-70.5,0-105.8,0c-8.1,0-16.1,0-24.2,0c3.3,3.3,6.7,6.7,10,10
				c0-37.4,0-74.9,0-112.3c0-5.2,0-10.5,0-15.7c-3.3,3.3-6.7,6.7-10,10c22,0,44,0,66,0c35.3,0,70.5,0,105.8,0c8.1,0,16.1,0,24.2,0
				c-3.3-3.3-6.7-6.7-10-10c0,37.4,0,74.9,0,112.3c0,5.2,0,10.5,0,15.7c0,12.9,20,12.9,20,0c0-37.4,0-74.9,0-112.3
				c0-5.2,0-10.5,0-15.7c0-5.4-4.6-10-10-10c-22,0-44,0-66,0c-35.3,0-70.5,0-105.8,0c-8.1,0-16.1,0-24.2,0c-5.4,0-10,4.6-10,10
				c0,37.4,0,74.9,0,112.3c0,5.2,0,10.5,0,15.7c0,5.4,4.6,10,10,10c22,0,44,0,66,0c35.3,0,70.5,0,105.8,0c8.1,0,16.1,0,24.2,0
				C574.2,739.5,574.2,719.5,561.3,719.5z"/>
		</g>
	</g>
	<g>
		<g>
			<path class="st0" d="M516.8,907.3c-0.2,20.2-11.4,38.4-29.3,47.7c-17.9,9.3-40.5,7-56.5-5.2c-7.2-5.5-13.2-13.1-16.8-21.4
				c-3.5-8-5-19.9-3.9-26.3c3.3-19.2,14.4-36.7,25.2-52.9c11.4-17.2,24.4-33.2,36.5-49.8c-5.2,0.7-10.5,1.3-15.7,2
				c13.2,15.9,26,32.2,37.2,49.7c6.2,9.6,12.1,19.6,16.6,30.1c1.9,4.4,3.6,9.1,4.9,13.9C516.4,900.3,516.8,902.4,516.8,907.3
				c0.2,12.9,20.2,12.9,20,0c-0.3-23.4-13-46-25.3-65.2c-12.3-19.3-26.5-37.3-41.1-54.9c-4.5-5.4-12.3-2.7-15.7,2
				c-12,16.5-24.8,32.3-36.2,49.3c-12.6,18.9-25.4,40-28.2,62.9c-3,25,9.8,50.1,29.5,64.9c20.6,15.5,48.8,18.5,72.4,8.4
				c27-11.5,44.3-38.3,44.6-67.5C537,894.5,517,894.5,516.8,907.3z"/>
		</g>
	</g>
	<g>
		<g>
			<path class="st0" d="M812.3,177.4c-0.1,11.1-1.7,21.8-4.8,32.5c3.2-2.4,6.4-4.9,9.6-7.3c-27.2,0-54.5,0-81.7,0
				c-43.2,0-86.3,0-129.5,0c-7,0-13.9,0-20.9,0c-1.8,0-3.7,0-5.5,0c-0.4,0-0.8,0-1.2,0c-1.6,0.1-8.3,2.3-3.4,0.6
				c3.8,1.5,7.5,3.1,11.3,4.6c-0.1-0.1-0.1-0.3-0.2-0.4c-2.8-5.6-11.6-6.6-15.7-2l0,0c1.5-0.9,2.9-1.7,4.4-2.6
				c2.9-1.1,3.3-0.3,1.6-0.3c-0.9,0-1.7,0-2.6,0.1c-3.2,0-6.4,0.1-9.6,0.1c-11.4,0.1-22.7,0.1-34.1,0.1c-36.8,0.1-73.7,0-110.5,0
				c-44.5,0-89.1-0.1-133.6-0.1c-38.3-0.1-76.6-0.1-114.9-0.2c-12.7,0-25.4,0-38.1-0.1c-5.9,0-12-0.5-17.8,0c-0.3,0-0.5,0-0.8,0
				c3.3,3.3,6.7,6.7,10,10c-4.3-37.5,9.2-76.2,38.7-100.5c28.8-23.8,69.9-26.4,101.7-6.6c20.8,12.9,35.7,33.9,43.2,57
				c3.2,9.8,15.9,9.2,19.3,0c9.4-25.5,38.5-38.7,64.2-32c21.5,5.6,38,24.1,38.9,46.6c0.2,4.9,3.6,9.2,8.7,9.8
				c4.4,0.5,10.3-2.2,11-7.2c3.6-24.7,14.1-51.9,36.2-65.3c8.9-5.4,19.1-7.9,28.8-6.1c11.1,2,20.3,7.9,28.1,16.2
				c10.6,11.3,17.2,25.7,21.1,40.6c1.3,4.8,6.2,7.9,11,7.2c5.3-0.8,8-4.7,8.7-9.8c5.9-45.2,40.1-83.4,83.9-95.2
				c44.3-11.9,92.9,4.4,120.9,40.8C804,127.6,812.2,152.2,812.3,177.4c0.1,12.9,20.1,12.9,20,0c-0.3-52.9-32-102.3-80.8-123.3
				c-50.4-21.7-110.2-10.8-149.1,28.2c-21.6,21.6-34.6,49.6-38.5,79.7c6.5-0.9,13.1-1.8,19.6-2.7c-7.9-29.8-27.2-60.7-58.5-69.6
				c-29.9-8.5-58.1,8-74.8,32.2c-10.6,15.3-16.9,33.7-19.5,52.1c6.5,0.9,13.1,1.8,19.6,2.7c-1-24.3-14.4-46.5-35.6-58.5
				c-23.2-13.2-53-13-75.9,0.8c-14.5,8.7-25.1,22-30.9,37.8c6.4,0,12.9,0,19.3,0c-15.7-48.2-58.9-86.4-111.3-85
				c-41.9,1.1-79,27.7-97.7,64.6c-11.7,23.2-16.8,50-13.9,75.9c0.6,5.4,4.1,10,10,10c15.5,0,31,0.1,46.6,0.1
				c37.1,0.1,74.1,0.1,111.2,0.2c44.9,0.1,89.7,0.1,134.6,0.2c38.4,0,76.9,0,115.3,0c18.2,0,36.7,0.9,54.9-0.3
				c2.8-0.2,5.6-0.7,7.6-3c-5.2-0.7-10.5-1.3-15.7-2c0.1,0.1,0.1,0.3,0.2,0.4c1.9,3.7,7.3,6,11.3,4.6c0.9-0.3,2-0.7,2.8-1.2
				c-1.7,0.5-3.4,0.9-5,1.4c26.9,0,53.8,0,80.7,0c42.9,0,85.8,0,128.8,0c9.9,0,19.8,0,29.6,0c4.4,0,8.4-3.1,9.6-7.3
				c3.5-12.3,5.4-25,5.5-37.8C832.4,164.5,812.4,164.5,812.3,177.4z"/>
		</g>
	</g>
</g>
<text transform="matrix(1 0 0 1 -6.6798 1039)" style="font-family:'HelveticaNeue-Bold'; font-size:5px;">Created by shashank singh</text>
<text transform="matrix(1 0 0 1 -6.6798 1044)" style="font-family:'HelveticaNeue-Bold'; font-size:5px;">from the Noun Project</text>
</svg>
