<?xml version="1.0" encoding="utf-8"?>
<!-- Generator: Adobe Illustrator 21.0.0, SVG Export Plug-In . SVG Version: 6.00 Build 0)  -->
<svg version="1.1" id="Calque_1" xmlns="http://www.w3.org/2000/svg" xmlns:xlink="http://www.w3.org/1999/xlink" x="0px" y="0px"
	 viewBox="0 0 29.8 48" style="enable-background:new 0 0 29.8 48;" xml:space="preserve">
<style type="text/css">
	.st0{fill:none;}
	.st1{fill:#FFFFFF;stroke:#FFFFFF;stroke-width:0.5;stroke-miterlimit:10;}
</style>
<title>icone-gesturesespanse</title>
<path class="st0" d="M22.8,30.9c1.4-1.2,1.2-5.3,1-8.5c0-0.9-0.1-1.7-0.1-2.5c-0.1-0.6-0.7-1.1-1.3-1c-0.5,0.1-0.9,0.5-1,1v1.9
	c0,0.3-0.3,0.6-0.6,0.6l0,0l0,0c-0.3,0-0.6-0.3-0.6-0.6l0,0V21L20,18.7c-0.1-0.6-0.7-1.1-1.3-1c-0.7,0-1.3,0.5-1.3,1v2.5
	c0,0.3-0.3,0.6-0.6,0.6c-0.3,0-0.6-0.3-0.6-0.6l0,0V18c-0.1-0.7-0.6-1.2-1.3-1.1c-0.6,0-1.1,0.4-1.3,0.9v2.8v0.5
	c0,0.3-0.3,0.6-0.6,0.5l0,0c-0.3,0-0.6-0.3-0.6-0.6v-3c0-0.1,0-0.2,0-0.3V7.8c0-0.7-0.6-1.4-1.3-1.4c-0.8,0-1.4,0.7-1.3,1.4v11.1
	c0,1.1-0.3,2.1-0.8,3c-0.2,0.4-0.3,0.8-0.3,1.3c0,0.9,0.2,1.8,0.5,2.6c0.1,0.3,0,0.7-0.3,0.8c-0.3,0.1-0.7,0-0.8-0.3
	c-0.4-1-0.6-2.1-0.6-3.1c0-0.6,0.2-1.3,0.5-1.8c0.2-0.4,0.4-0.9,0.5-1.3H7.8c-0.2,0-0.3,0-0.5,0.1c-0.7,0.3-1.3,0.9-1.6,1.5
	c-1,1.9-1.1,4.1-0.2,6.1c0.7,1.6,2.8,3.6,4.1,4.8c1,0.9,1.2,1.1,1.2,1.5v2.2H21C20.9,34.9,21.1,32.4,22.8,30.9z"/>
<path class="st1" d="M5,18.4c-1.8,1.6-1.6,5.8-1.4,9.5c0,0.9,0.1,1.7,0.1,2.4c0.1,1.3,1.1,2.2,2.4,2.2c0.5,0,0.9-0.1,1.3-0.4
	c0.4,1,1.4,1.7,2.4,1.6c0.6,0,1.1-0.2,1.6-0.5c0.4,0.9,1.3,1.4,2.3,1.4c0.5,0,0.9-0.1,1.3-0.3v8.3c0,1.4,1.1,2.5,2.5,2.6
	s2.5-1,2.6-2.4v-0.1v-11h0.7c0.3,0,0.7-0.1,1-0.2c0.9-0.4,1.7-1.2,2.2-2.1c1.2-2.2,1.3-4.8,0.3-7.1c-0.8-1.9-3.1-4-4.4-5.2
	c-0.3-0.3-0.7-0.6-0.8-0.8v-2h1.1c0.3,0,0.6-0.3,0.6-0.6v-8c0-0.3-0.3-0.6-0.6-0.6c-0.3,0-0.6,0.3-0.6,0.6v7.4H5.1V5.7
	c0-0.3-0.3-0.6-0.6-0.6c-0.3,0-0.6,0.3-0.6,0.6v8c0,0.3,0.3,0.6,0.6,0.6h1.8C6.3,15.2,6.3,17.3,5,18.4z M17.7,14.2v2.2
	c0,0.4,0.2,0.6,1.2,1.5c1.3,1.2,3.4,3.1,4.1,4.8c0.8,2,0.8,4.2-0.2,6.1c-0.3,0.6-0.9,1.2-1.6,1.5c-0.1,0.1-0.3,0.1-0.5,0.1h-0.5
	c0.1-0.4,0.3-0.9,0.5-1.3c0.3-0.6,0.4-1.2,0.5-1.8c0-1.1-0.2-2.1-0.6-3.1c-0.1-0.3-0.5-0.4-0.8-0.3s-0.5,0.5-0.3,0.8
	c0.3,0.8,0.5,1.7,0.5,2.6c0,0.4-0.1,0.9-0.3,1.3c-0.5,0.9-0.8,2-0.8,3v11c0,0.8-0.6,1.4-1.3,1.4c-0.7,0-1.3-0.6-1.3-1.4v-9.9
	c0-0.1,0-0.2,0-0.3v-3c0-0.3-0.3-0.6-0.6-0.6s-0.6,0.2-0.6,0.5l0,0v0.5v2.8c-0.2,0.6-0.7,1-1.3,0.9c-0.7,0-1.3-0.5-1.3-1.1v-3.2
	c0-0.3-0.2-0.6-0.6-0.6c-0.3,0-0.6,0.2-0.6,0.6v2.5c0,0.5-0.6,1-1.3,1c-0.6,0.1-1.2-0.4-1.3-1l-0.1-2.3v-0.9c0-0.3-0.3-0.6-0.6-0.6
	l0,0l0,0c-0.3,0-0.6,0.3-0.6,0.6l0,0v1.8c-0.1,0.6-0.7,1.1-1.3,1c-0.5-0.1-0.9-0.5-1-1c0-0.8-0.1-1.6-0.1-2.5
	c-0.2-3.3-0.4-7.3,1-8.5c1.7-1.5,1.8-3.9,1.8-5.2L17.7,14.2L17.7,14.2z"/>
</svg>
