<?xml version="1.0" encoding="utf-8"?>
<!-- Generator: Adobe Illustrator 21.0.0, SVG Export Plug-In . SVG Version: 6.00 Build 0)  -->
<svg version="1.1"
	 id="Calque_1" xmlns:cc="http://creativecommons.org/ns#" xmlns:dc="http://purl.org/dc/elements/1.1/" xmlns:inkscape="http://www.inkscape.org/namespaces/inkscape" xmlns:rdf="http://www.w3.org/1999/02/22-rdf-syntax-ns#" xmlns:sodipodi="http://sodipodi.sourceforge.net/DTD/sodipodi-0.dtd" xmlns:svg="http://www.w3.org/2000/svg"
	 xmlns="http://www.w3.org/2000/svg" xmlns:xlink="http://www.w3.org/1999/xlink" x="0px" y="0px" viewBox="0 0 390.7 392.9"
	 style="enable-background:new 0 0 390.7 392.9;" xml:space="preserve">
<style type="text/css">
	.st0{fill:#FFFFFF;}
</style>
<g transform="translate(-220.378,-402.5511)">
	<path class="st0" d="M415.7,402.6c-64.3,0-116.5,52.3-116.5,116.5c0,34.6,15.3,65.7,39.3,87.1c-71.2,30.6-118.1,101.1-118.1,179.5
		c0,4.2,3.3,7.6,7.6,7.6h375.4c4.2,0,7.7-3.4,7.7-7.6c0-78.4-47-148.8-118.1-179.5c24.1-21.4,39.2-52.4,39.2-87.1
		C532.2,454.8,479.9,402.6,415.7,402.6z M415.8,417.8c55.8,0,101.2,45.4,101.2,101.2c0,55.8-45.4,101.2-101.2,101.2
		c-55.8,0-101.2-45.4-101.2-101.2C314.5,463.2,360,417.8,415.8,417.8z M352.7,617c18.2,11.8,39.8,18.6,63,18.6
		c23.2,0,44.8-6.9,62.9-18.6c67.8,25.3,113.9,88.9,116.9,161H235.9C238.9,705.9,285,642.3,352.7,617L352.7,617z"/>
</g>
</svg>
